# xmcd CD database file generated by freedbAccess_ocx
#
# Track frame offsets:
#       151
#       21204
#       47501
#       81434
#       98666
#       127791
#       155856
#       170610
#       197181
#       216292
#
# Disc length: 3150 seconds
#
# Revision: 0
# Processed by: cddbd v1.4PL0 Copyright (c) Steve Scherf et al.
# Submitted via: CDnGo 2.00
#
DISCID=850c4c0a
DTITLE=Big Mike Griffin - Livin' Large
DYEAR=2003
DGENRE=Blues
TTITLE0=Livin' Large
TTITLE1=Too Many Drivers
TTITLE2=Baby Won't Ride
TTITLE3=Three Hundred Pounds of Joy
TTITLE4=Down in Hollywood
TTITLE5=Tryin To Get Back Home
TTITLE6=Oh, Pretty Woman
TTITLE7=Blues for Mr.B
TTITLE8=I'll Be Your Monkey
TTITLE9=I Wouldn't Lay My Guitar Down
EXTD=
EXTT0=
EXTT1=
EXTT2=
EXTT3=
EXTT4=
EXTT5=
EXTT6=
EXTT7=
EXTT8=
EXTT9=
PLAYORDER=
